<svg id="Camada_1" data-name="Camada 1" xmlns="http://www.w3.org/2000/svg" viewBox="0 0 287.06 287.06"><defs><style>.cls-1{fill:#51b159;}</style></defs><circle class="cls-1" cx="145.02" cy="144.89" r="115.91"/><path d="M143.53,12.51c72.24,0,131,58.78,131,131s-58.78,131-131,131-131-58.78-131-131,58.78-131,131-131m0-12.51A143.53,143.53,0,1,0,287.06,143.53,143.53,143.53,0,0,0,143.53,0Z"/><path d="M195.31,18.81l-7.08-7.08L96.07,103.89a19.84,19.84,0,0,0-9.3-2.39,20,20,0,1,0,20,20,20.5,20.5,0,0,0-3.33-10.91ZM86.77,131.57a10,10,0,0,1,0-20.06,10,10,0,0,1,10,10A10,10,0,0,1,86.77,131.57Z"/><path d="M201.53,143.53a20,20,0,0,0-20,20,20.38,20.38,0,0,0,3.33,10.91L93,266.3l7.08,7.08,92.15-92.16a20,20,0,1,0,9.3-37.69Zm0,30.08a10,10,0,0,1-10-10,10,10,0,1,1,10,10Z"/><path d="M191.83,76.68a19.9,19.9,0,0,0-17.2,30.16l-66.24,66.25a20,20,0,0,0-30.22,17.25,20,20,0,0,0,20,20,20,20,0,0,0,17.24-30.22l66.25-66.24a20,20,0,1,0,10.12-37.24ZM98.22,200.37a10,10,0,0,1-10-10,10,10,0,1,1,10,10Zm93.61-93.61a10,10,0,0,1-10-10,10,10,0,1,1,10,10Z"/></svg>